<svg width="24" height="25" viewBox="0 0 24 25" fill="none" xmlns="http://www.w3.org/2000/svg">
<g id="more_vert" clip-path="url(#clip0_414_291)">
<path id="Vector" d="M12 8.53009C13.1 8.53009 14 7.63009 14 6.53009C14 5.43009 13.1 4.53009 12 4.53009C10.9 4.53009 10 5.43009 10 6.53009C10 7.63009 10.9 8.53009 12 8.53009ZM12 10.5301C10.9 10.5301 10 11.4301 10 12.5301C10 13.6301 10.9 14.5301 12 14.5301C13.1 14.5301 14 13.6301 14 12.5301C14 11.4301 13.1 10.5301 12 10.5301ZM12 16.5301C10.9 16.5301 10 17.4301 10 18.5301C10 19.6301 10.9 20.5301 12 20.5301C13.1 20.5301 14 19.6301 14 18.5301C14 17.4301 13.1 16.5301 12 16.5301Z" fill="#0F1419"/>
</g>
<defs>
<clipPath id="clip0_414_291">
<rect width="24" height="24" fill="white" transform="translate(0 0.53009)"/>
</clipPath>
</defs>
</svg>
